<svg width="130" height="195" viewBox="0 0 130 195" fill="none" xmlns="http://www.w3.org/2000/svg">
<rect width="130" height="195" fill="#161616"/>
<g clip-path="url(#clip0_89_13)">
<path d="M64.7494 101.2C69.0441 101.2 73.2424 99.9332 76.8133 97.5598C80.3841 95.1863 83.1673 91.8129 84.8108 87.866C86.4543 83.9191 86.8843 79.576 86.0465 75.3861C85.2086 71.1961 83.1406 67.3473 80.1038 64.3265C77.067 61.3057 73.1978 59.2485 68.9857 58.415C64.7735 57.5816 60.4075 58.0094 56.4397 59.6442C52.472 61.2791 49.0807 64.0476 46.6947 67.5997C44.3087 71.1518 43.0352 75.3279 43.0352 79.6C43.0352 85.3287 45.3229 90.8227 49.3951 94.8735C53.4673 98.9243 58.9905 101.2 64.7494 101.2Z" fill="#D9D9D9"/>
<path d="M97.5714 139C99.0112 139 100.392 138.431 101.41 137.418C102.428 136.406 103 135.032 103 133.6C103 123.575 98.9964 113.96 91.8701 106.871C84.7437 99.7824 75.0782 95.7999 65 95.7999C54.9218 95.7999 45.2563 99.7824 38.1299 106.871C31.0036 113.96 27 123.575 27 133.6C27 135.032 27.5719 136.406 28.59 137.418C29.608 138.431 30.9888 139 32.4286 139" fill="#D9D9D9"/>
</g>
<defs>
<clipPath id="clip0_89_13">
<rect width="130" height="130" fill="white" transform="translate(0 33)"/>
</clipPath>
</defs>
</svg>
