<svg width="71" height="36" viewBox="0 0 71 36" fill="none" xmlns="http://www.w3.org/2000/svg">
<path d="M70.0549 12.8879C71.1586 13.6014 71.2529 14.5131 70.3375 15.6229C69.4222 16.7064 68.4261 16.8913 67.3492 16.1779L56.8901 8.48817L46.4309 16.1779C45.3541 16.8913 44.3579 16.7064 43.4426 15.6229C42.5273 14.5131 42.6215 13.6014 43.7253 12.8879L53.3364 5.91172H45.5425C44.5464 5.91172 44.0349 5.2511 44.008 3.92984C44.008 2.58216 44.5195 1.90833 45.5425 1.90833H68.2376C69.2876 1.90833 69.7991 2.58216 69.7722 3.92984C69.7722 5.2511 69.2607 5.91172 68.2376 5.91172H60.4437L70.0549 12.8879ZM60.5649 32.8257C60.5649 34.0941 59.7572 34.7283 58.1419 34.7283C56.5535 34.7283 55.7593 34.0941 55.7593 32.8257V23.273C55.7593 23.1673 55.7459 23.0748 55.719 22.9955C55.692 22.9163 55.5844 22.8766 55.3959 22.8766H42.5138C41.5177 22.8766 41.0062 22.216 40.9792 20.8947C40.9792 19.5471 41.4908 18.8732 42.5138 18.8732H58.0208C58.99 18.8732 59.6496 19.1243 59.9995 19.6263C60.3764 20.102 60.5649 20.6437 60.5649 21.2515V32.8257Z" fill="white"/>
<path d="M21.2321 16.7329C21.2321 19.0319 20.3168 21.027 18.4861 22.7182L18.163 22.9956C18.8899 23.2599 19.2534 23.8148 19.2534 24.6604V31.2402C19.2534 31.3459 19.2668 31.4384 19.2937 31.5177C19.3207 31.597 19.4284 31.6366 19.6168 31.6366H37.7891C38.7852 31.6366 39.2832 32.3105 39.2832 33.6581C39.3101 34.9794 38.8121 35.64 37.7891 35.64H16.9919C16.0227 35.64 15.3497 35.389 14.9728 34.8869C14.6228 34.4113 14.4478 33.8695 14.4478 33.2618V24.9379C13.6402 25.1228 12.7921 25.2153 11.9037 25.2153C9.29227 25.2153 7.07122 24.3829 5.24054 22.7182C3.40985 21.0534 2.49451 19.0583 2.49451 16.7329C2.49451 14.3811 3.40985 12.386 5.24054 10.7476C5.91358 10.1398 6.64047 9.63775 7.42121 9.24137H2.49451C1.4984 9.24137 0.986883 8.58075 0.959961 7.25949C0.959961 5.91182 1.47148 5.23798 2.49451 5.23798H9.52111V2.54262C9.52111 1.27422 10.3153 0.640015 11.9037 0.640015C13.519 0.640015 14.3267 1.27422 14.3267 2.54262V5.23798H21.0706C22.1205 5.23798 22.6321 5.91182 22.6051 7.25949C22.6051 8.58075 22.0936 9.24137 21.0706 9.24137H16.3054C17.0861 9.63775 17.813 10.153 18.4861 10.7872C20.3168 12.452 21.2321 14.4339 21.2321 16.7329ZM31.0451 23.4713C31.0451 24.7397 30.2375 25.3739 28.6222 25.3739C27.0338 25.3739 26.2396 24.7397 26.2396 23.4713V2.939C26.2396 1.67059 27.0338 1.03639 28.6222 1.03639C30.2375 1.03639 31.0451 1.67059 31.0451 2.939V23.4713ZM16.4669 16.4951C16.4669 15.1474 16.0093 14.0111 15.0939 13.0862C14.2055 12.1613 13.1421 11.6989 11.9037 11.6989C10.6653 11.6989 9.58841 12.1613 8.67307 13.0862C7.78465 14.0111 7.34044 15.1474 7.34044 16.4951C7.34044 17.8427 7.78465 18.979 8.67307 19.9039C9.58841 20.8288 10.6653 21.2912 11.9037 21.2912C13.1421 21.2912 14.2055 20.8288 15.0939 19.9039C16.0093 18.979 16.4669 17.8427 16.4669 16.4951ZM38.5967 12.016C38.5967 12.8616 38.2871 13.5883 37.6679 14.1961C37.0756 14.7774 36.3487 15.0681 35.4872 15.0681C34.6257 15.0681 33.8854 14.7774 33.2662 14.1961C32.6739 13.5883 32.3778 12.8616 32.3778 12.016C32.3778 11.1704 32.6739 10.4569 33.2662 9.87558C33.8854 9.2678 34.6257 8.96391 35.4872 8.96391C36.3487 8.96391 37.0756 9.2678 37.6679 9.87558C38.2871 10.4569 38.5967 11.1704 38.5967 12.016Z" fill="white"/>
</svg>
