<svg width="32" height="32" viewBox="0 0 32 32" fill="none" xmlns="http://www.w3.org/2000/svg">
<path d="M10 6H5V11H10V6Z" fill="white"/>
<path d="M18 6H13V11H18V6Z" fill="white"/>
<path d="M26 6H21V11H26V6Z" fill="white"/>
<path d="M10 14H5V19H10V14Z" fill="white"/>
<path d="M18 14H13V19H18V14Z" fill="white"/>
<path d="M25.2679 13.4381L20.4382 14.7322L21.7323 19.5619L26.562 18.2678L25.2679 13.4381Z" fill="white"/>
<path d="M10 22H5V27H10V22Z" fill="white"/>
<path d="M18 22H13V27H18V22Z" fill="white"/>
<path d="M26 22H21V27H26V22Z" fill="white"/>
</svg>
