<svg width="32" height="32" viewBox="0 0 32 32" fill="none" xmlns="http://www.w3.org/2000/svg">
<path d="M23.1399 13.5801C23.1436 11.4185 22.4145 9.31949 21.0714 7.62516C19.7283 5.93083 17.8505 4.74115 15.7441 4.25008C13.6377 3.75901 11.4269 3.99552 9.47228 4.92105C7.51762 5.84658 5.93435 7.40654 4.9806 9.34659C4.02685 11.2866 3.75888 13.4923 4.22038 15.6041C4.68187 17.7159 5.84562 19.6091 7.52187 20.9752C9.19813 22.3412 11.288 23.0995 13.4508 23.1264C15.6136 23.1533 17.7218 22.4473 19.4315 21.1233L27.0875 28.7742L28.7742 27.0886L21.1182 19.4377C22.4239 17.7635 23.1352 15.7027 23.1399 13.5801ZM13.5699 20.7527C12.1504 20.7527 10.7627 20.3321 9.58236 19.5439C8.40203 18.7558 7.48208 17.6356 6.93883 16.3249C6.39559 15.0143 6.25345 13.5721 6.5304 12.1807C6.80734 10.7894 7.49093 9.51132 8.49471 8.5082C9.4985 7.50508 10.7774 6.82195 12.1697 6.54519C13.562 6.26843 15.0051 6.41047 16.3166 6.95336C17.6281 7.49624 18.7491 8.41558 19.5378 9.59513C20.3264 10.7747 20.7474 12.1614 20.7474 13.5801C20.7474 15.4824 19.9912 17.3068 18.6452 18.6519C17.2991 19.997 15.4735 20.7527 13.5699 20.7527Z" fill="white"/>
</svg>
